<svg xmlns="http://www.w3.org/2000/svg" width="1600" height="980" viewBox="0 0 1600 980">
  <style>
    .title { font: 700 30px Arial, sans-serif; fill: #111827; }
    .subtitle { font: 600 17px Arial, sans-serif; fill: #111827; }
    .actor { font: 600 16px Arial, sans-serif; fill: #111827; }
    .label { font: 600 17px Arial, sans-serif; fill: #111827; }
    .actor-frame { fill: #ffffff; stroke: #cbd5e1; stroke-width: 2; rx: 16; }
    .system { fill: #ffffff; stroke: #cbd5e1; stroke-width: 2.2; rx: 20; }
    .ellipse { fill: #f8fafc; stroke: #1f2937; stroke-width: 2.2; }
    .line { stroke: #475569; stroke-width: 2.2; fill: none; stroke-linecap: round; }
  </style>

  <rect x="0" y="0" width="1600" height="980" fill="#ffffff"/>

  <text x="800" y="48" text-anchor="middle" class="title">Casos de Uso</text>

  <rect x="260" y="90" width="1080" height="800" class="system"/>
  <text x="800" y="130" text-anchor="middle" class="subtitle">Sistema preditivo escolar</text>

  <g transform="translate(70,170)">
    <rect x="-20" y="-16" width="150" height="210" class="actor-frame"/>
    <circle cx="55" cy="28" r="18" stroke="#111827" stroke-width="2.2" fill="none"/>
    <line x1="55" y1="46" x2="55" y2="104" class="line"/>
    <line x1="18" y1="67" x2="92" y2="67" class="line"/>
    <line x1="55" y1="104" x2="24" y2="144" class="line"/>
    <line x1="55" y1="104" x2="86" y2="144" class="line"/>
    <text x="55" y="168" text-anchor="middle" class="actor">Operador de</text>
    <text x="55" y="190" text-anchor="middle" class="actor">dados</text>
  </g>

  <g transform="translate(70,500)">
    <rect x="-20" y="-16" width="150" height="210" class="actor-frame"/>
    <circle cx="55" cy="28" r="18" stroke="#111827" stroke-width="2.2" fill="none"/>
    <line x1="55" y1="46" x2="55" y2="104" class="line"/>
    <line x1="18" y1="67" x2="92" y2="67" class="line"/>
    <line x1="55" y1="104" x2="24" y2="144" class="line"/>
    <line x1="55" y1="104" x2="86" y2="144" class="line"/>
    <text x="55" y="168" text-anchor="middle" class="actor">Pesquisador /</text>
    <text x="55" y="190" text-anchor="middle" class="actor">desenvolvedor</text>
  </g>

  <g transform="translate(1410,170)">
    <rect x="-20" y="-16" width="150" height="210" class="actor-frame"/>
    <circle cx="55" cy="28" r="18" stroke="#111827" stroke-width="2.2" fill="none"/>
    <line x1="55" y1="46" x2="55" y2="104" class="line"/>
    <line x1="18" y1="67" x2="92" y2="67" class="line"/>
    <line x1="55" y1="104" x2="24" y2="144" class="line"/>
    <line x1="55" y1="104" x2="86" y2="144" class="line"/>
    <text x="55" y="180" text-anchor="middle" class="actor">Professor</text>
  </g>

  <g transform="translate(1410,420)">
    <rect x="-20" y="-16" width="150" height="210" class="actor-frame"/>
    <circle cx="55" cy="28" r="18" stroke="#111827" stroke-width="2.2" fill="none"/>
    <line x1="55" y1="46" x2="55" y2="104" class="line"/>
    <line x1="18" y1="67" x2="92" y2="67" class="line"/>
    <line x1="55" y1="104" x2="24" y2="144" class="line"/>
    <line x1="55" y1="104" x2="86" y2="144" class="line"/>
    <text x="55" y="180" text-anchor="middle" class="actor">Coordenacao</text>
  </g>

  <g transform="translate(1410,670)">
    <rect x="-20" y="-16" width="150" height="210" class="actor-frame"/>
    <circle cx="55" cy="28" r="18" stroke="#111827" stroke-width="2.2" fill="none"/>
    <line x1="55" y1="46" x2="55" y2="104" class="line"/>
    <line x1="18" y1="67" x2="92" y2="67" class="line"/>
    <line x1="55" y1="104" x2="24" y2="144" class="line"/>
    <line x1="55" y1="104" x2="86" y2="144" class="line"/>
    <text x="55" y="180" text-anchor="middle" class="actor">Secretaria</text>
  </g>

  <ellipse cx="460" cy="230" rx="160" ry="40" class="ellipse"/>
  <text x="460" y="236" text-anchor="middle" class="label">Preparar insumos locais</text>

  <ellipse cx="460" cy="350" rx="160" ry="40" class="ellipse"/>
  <text x="460" y="356" text-anchor="middle" class="label">Extrair CSVs canonicos</text>

  <ellipse cx="790" cy="250" rx="160" ry="40" class="ellipse"/>
  <text x="790" y="256" text-anchor="middle" class="label">Rodar pipeline preditiva</text>

  <ellipse cx="700" cy="430" rx="195" ry="40" class="ellipse"/>
  <text x="700" y="436" text-anchor="middle" class="label">Comparar cenarios de historico</text>

  <ellipse cx="700" cy="610" rx="190" ry="40" class="ellipse"/>
  <text x="700" y="616" text-anchor="middle" class="label">Gerar relatorios escolares</text>

  <ellipse cx="1140" cy="230" rx="190" ry="40" class="ellipse"/>
  <text x="1140" y="236" text-anchor="middle" class="label">Acompanhar alunos em risco</text>

  <ellipse cx="1125" cy="430" rx="180" ry="40" class="ellipse"/>
  <text x="1125" y="436" text-anchor="middle" class="label">Consultar dashboard</text>

  <ellipse cx="1125" cy="610" rx="190" ry="40" class="ellipse"/>
  <text x="1125" y="616" text-anchor="middle" class="label">Priorizar acoes pedagogicas</text>

  <ellipse cx="1140" cy="760" rx="230" ry="40" class="ellipse"/>
  <text x="1140" y="766" text-anchor="middle" class="label">Acompanhar sinais administrativos</text>

  <line x1="180" y1="250" x2="300" y2="230" class="line"/>
  <line x1="180" y1="280" x2="300" y2="350" class="line"/>

  <line x1="180" y1="585" x2="630" y2="250" class="line"/>
  <line x1="180" y1="610" x2="505" y2="430" class="line"/>
  <line x1="180" y1="635" x2="510" y2="610" class="line"/>

  <line x1="1330" y1="230" x2="1390" y2="250" class="line"/>
  <line x1="1305" y1="430" x2="1390" y2="270" class="line"/>

  <line x1="1305" y1="430" x2="1390" y2="500" class="line"/>
  <line x1="1315" y1="610" x2="1390" y2="520" class="line"/>

  <line x1="1305" y1="430" x2="1390" y2="750" class="line"/>
  <line x1="1370" y1="760" x2="1390" y2="770" class="line"/>
</svg>
